<svg width="14" height="14" viewBox="0 0 14 14" fill="none" xmlns="http://www.w3.org/2000/svg">
<path d="M7.00002 7.70252L9.04869 9.75135C9.14102 9.84357 9.25708 9.8908 9.39685 9.89302C9.53652 9.89513 9.65469 9.84791 9.75135 9.75135C9.84791 9.65469 9.89619 9.53758 9.89619 9.40002C9.89619 9.26246 9.84791 9.14535 9.75135 9.04869L7.70252 7.00002L9.75135 4.95135C9.84358 4.85902 9.8908 4.74296 9.89302 4.60319C9.89513 4.46352 9.84791 4.34535 9.75135 4.24869C9.65469 4.15213 9.53758 4.10385 9.40002 4.10385C9.26246 4.10385 9.14535 4.15213 9.04869 4.24869L7.00002 6.29752L4.95135 4.24869C4.85902 4.15646 4.74296 4.10924 4.60319 4.10702C4.46352 4.10491 4.34535 4.15213 4.24869 4.24869C4.15213 4.34535 4.10385 4.46246 4.10385 4.60002C4.10385 4.73758 4.15213 4.85469 4.24869 4.95135L6.29752 7.00002L4.24869 9.04869C4.15647 9.14102 4.10924 9.25708 4.10702 9.39685C4.10491 9.53652 4.15213 9.65469 4.24869 9.75135C4.34535 9.84791 4.46246 9.89619 4.60002 9.89619C4.73758 9.89619 4.85469 9.84791 4.95135 9.75135L7.00002 7.70252ZM7.00119 13.3334C6.12519 13.3334 5.3018 13.1671 4.53102 12.8347C3.76024 12.5022 3.0898 12.0511 2.51969 11.4812C1.94958 10.9113 1.49819 10.2411 1.16552 9.47069C0.832965 8.70024 0.666687 7.87708 0.666687 7.00119C0.666687 6.12519 0.832909 5.3018 1.16535 4.53102C1.4978 3.76024 1.94896 3.0898 2.51885 2.51969C3.08874 1.94958 3.75891 1.49819 4.52935 1.16552C5.2998 0.832965 6.12296 0.666687 6.99885 0.666687C7.87485 0.666687 8.69824 0.832909 9.46902 1.16535C10.2398 1.4978 10.9102 1.94896 11.4804 2.51885C12.0505 3.08874 12.5019 3.75891 12.8345 4.52935C13.1671 5.2998 13.3334 6.12296 13.3334 6.99885C13.3334 7.87485 13.1671 8.69824 12.8347 9.46902C12.5022 10.2398 12.0511 10.9102 11.4812 11.4804C10.9113 12.0505 10.2411 12.5019 9.47069 12.8345C8.70024 13.1671 7.87708 13.3334 7.00119 13.3334Z" fill="#C20A0D"/>
</svg>
