<svg width="21" height="19" viewBox="0 0 21 19" fill="none" xmlns="http://www.w3.org/2000/svg">
<path d="M2.30775 12.5C1.83208 12.5 1.41192 12.3176 1.04725 11.9528C0.682417 11.5881 0.5 11.1679 0.5 10.6923V9.077C0.5 8.972 0.5135 8.8595 0.5405 8.7395C0.567333 8.61967 0.597417 8.50775 0.63075 8.40375L3.49675 1.64125C3.63992 1.32142 3.88008 1.05125 4.21725 0.83075C4.55442 0.61025 4.90625 0.5 5.27275 0.5H15.7885V12.5L9.97125 18.2673C9.77242 18.4659 9.54225 18.5845 9.28075 18.623C9.01925 18.6615 8.76867 18.6167 8.529 18.4885C8.28917 18.3602 8.1135 18.1781 8.002 17.9423C7.8905 17.7064 7.86675 17.4622 7.93075 17.2095L9.00775 12.5H2.30775ZM14.2885 11.8615V2H5.26925C5.19875 2 5.12667 2.01925 5.053 2.05775C4.97917 2.09625 4.923 2.16033 4.8845 2.25L2 9V10.6923C2 10.7821 2.02883 10.8558 2.0865 10.9135C2.14417 10.9712 2.21792 11 2.30775 11H10.9038L9.65 16.4808L14.2885 11.8615ZM18.6923 0.5C19.1894 0.5 19.615 0.677 19.969 1.031C20.323 1.385 20.5 1.81058 20.5 2.30775V10.6923C20.5 11.1894 20.323 11.615 19.969 11.969C19.615 12.323 19.1894 12.5 18.6923 12.5H15.7885V11H18.6923C18.7821 11 18.8558 10.9712 18.9135 10.9135C18.9712 10.8558 19 10.7821 19 10.6923V2.30775C19 2.21792 18.9712 2.14417 18.9135 2.0865C18.8558 2.02883 18.7821 2 18.6923 2H15.7885V0.5H18.6923Z" fill="#999999"/>
</svg>
