<svg width="86" height="81" viewBox="0 0 86 81" fill="none" xmlns="http://www.w3.org/2000/svg">
<path d="M8.60619 80.6043C6.31189 80.6043 4.36995 79.8095 2.78037 78.2199C1.19079 76.6303 0.395996 74.6884 0.395996 72.3941V11.6061C0.395996 9.31185 1.19079 7.3699 2.78037 5.78032C4.36995 4.19074 6.31189 3.39595 8.60619 3.39595H40.4853C41.4519 3.39595 42.2611 3.72219 42.9128 4.37467C43.5653 5.0264 43.8915 5.83558 43.8915 6.8022C43.8915 7.76881 43.5653 8.57799 42.9128 9.22972C42.2611 9.8822 41.4519 10.2084 40.4853 10.2084H8.60619C8.25649 10.2084 7.9363 10.3542 7.64563 10.6456C7.35421 10.9362 7.2085 11.2564 7.2085 11.6061V72.3941C7.2085 72.7438 7.35421 73.064 7.64563 73.3547C7.9363 73.6461 8.25649 73.7918 8.60619 73.7918H69.3941C69.7438 73.7918 70.064 73.6461 70.3547 73.3547C70.6461 73.064 70.7918 72.7438 70.7918 72.3941V45.2758C70.7918 44.3092 71.1181 43.4996 71.7706 42.8471C72.4223 42.1954 73.2315 41.8695 74.1981 41.8695C75.1647 41.8695 75.9739 42.1954 76.6256 42.8471C77.2781 43.4996 77.6043 44.3092 77.6043 45.2758V72.3941C77.6043 74.6884 76.8095 76.6303 75.22 78.2199C73.6304 79.8095 71.6884 80.6043 69.3941 80.6043H8.60619ZM66.7304 11.9025L60.6775 17.7544C60.0485 18.3834 59.27 18.7097 58.342 18.7332C57.4132 18.7559 56.6109 18.4296 55.9349 17.7544C55.3066 17.1254 54.9925 16.3352 54.9925 15.3837C54.9925 14.4314 55.3066 13.6408 55.9349 13.0118L67.2198 1.72802C67.6445 1.30262 68.1001 0.991135 68.5869 0.793572C69.0728 0.595253 69.5894 0.496094 70.1367 0.496094C70.684 0.496094 71.1934 0.595253 71.665 0.793572C72.1365 0.991135 72.585 1.30262 73.0104 1.72802L84.2942 13.0118C84.9232 13.6408 85.2495 14.4197 85.2729 15.3485C85.2956 16.2773 84.9694 17.0792 84.2942 17.7544C83.6652 18.3834 82.8749 18.698 81.9235 18.698C80.9712 18.698 80.1806 18.3834 79.5516 17.7544L73.5429 11.9025V29.0303C73.5429 29.9969 73.2167 30.806 72.5642 31.4578C71.9125 32.1103 71.1033 32.4365 70.1367 32.4365C69.1701 32.4365 68.3609 32.1103 67.7092 31.4578C67.0567 30.806 66.7304 29.9969 66.7304 29.0303V11.9025ZM19.2621 63.573H59.0879C59.9092 63.573 60.5178 63.2002 60.9137 62.4546C61.3096 61.7098 61.2483 60.9881 60.7298 60.2894L49.9002 45.7822C49.4748 45.2349 48.9275 44.9613 48.2583 44.9613C47.5885 44.9613 47.0412 45.2349 46.6165 45.7822L35.5065 60.2542L28.065 50.7167C27.6403 50.1982 27.1002 49.939 26.4447 49.939C25.79 49.939 25.2499 50.213 24.8245 50.761L17.6634 60.2894C17.1161 60.9881 17.0404 61.7098 17.4363 62.4546C17.8322 63.2002 18.4408 63.573 19.2621 63.573Z" fill="#999999"/>
</svg>
